{"glyphs":{":":{"x_min":0,"x_max":333,"ha":333,"o":"m 253 454 b 253 502 214 540 167 540 b 120 540 81 502 81 454 b 81 407 120 368 167 368 b 214 368 253 407 253 454 z m 253 86 b 253 133 214 172 167 172 b 120 172 81 133 81 86 b 81 39 120 0 167 0 b 214 0 253 39 253 86 z"},"$":{"x_min":0,"x_max":590,"ha":590,"o":"m 533 204 b 533 300 467 364 349 385 b 209 410 191 425 191 470 b 191 517 224 549 333 549 b 408 549 469 530 510 487 l 515 487 l 515 540 b 515 612 454 656 346 663 l 346 738 b 346 775 329 794 293 794 l 254 794 l 254 660 b 154 647 57 575 57 456 b 57 350 135 303 237 286 b 372 263 397 245 397 195 b 397 140 364 113 264 113 b 180 113 112 147 74 184 l 72 184 l 72 138 b 72 68 115 6 254 0 l 254 -79 b 254 -117 273 -136 314 -136 l 346 -136 l 346 1 b 424 7 533 76 533 204 z"},"?":{"x_min":0,"x_max":472,"ha":472,"o":"m 439 529 b 439 626 364 708 225 708 b 94 708 36 637 36 569 l 36 522 l 41 522 b 72 564 128 589 204 589 b 271 589 304 562 304 514 b 304 494 297 473 274 454 l 203 396 b 154 356 138 319 138 270 b 138 237 169 211 199 211 l 246 211 l 246 247 b 246 281 251 297 289 329 l 369 397 b 422 442 439 478 439 529 z m 297 86 b 297 133 258 172 211 172 b 164 172 125 133 125 86 b 125 39 164 0 211 0 b 258 0 297 39 297 86 z"},"<":{"x_min":0,"x_max":590,"ha":590,"o":"m 521 494 l 521 541 b 401 504 171 402 93 356 b 56 334 36 312 36 278 l 36 262 b 130 194 299 108 390 73 b 403 68 431 58 444 58 b 480 58 517 70 517 110 l 517 140 b 430 175 262 252 191 291 b 256 322 397 382 445 400 b 500 421 521 454 521 494 z"},"'":{"x_min":0,"x_max":224,"ha":224,"o":"m 182 601 b 187 654 152 685 104 685 l 43 685 l 57 527 b 62 474 87 443 135 443 l 167 443 z"},"=":{"x_min":0,"x_max":590,"ha":590,"o":"m 457 356 b 494 356 525 383 525 408 l 525 456 l 124 456 b 81 456 56 432 56 403 l 56 356 z m 457 163 b 494 163 525 185 525 215 l 525 262 l 124 262 b 81 262 56 239 56 210 l 56 163 z"},"a":{"x_min":0,"x_max":529,"ha":529,"o":"m 488 184 l 488 308 b 488 494 380 550 260 550 b 118 550 64 478 64 418 l 64 375 l 69 375 b 89 400 143 437 240 437 b 320 437 356 414 356 338 l 356 331 l 309 331 b 111 331 41 258 41 162 b 41 63 129 -9 257 -9 l 284 -9 b 404 -9 488 70 488 184 z m 357 183 b 357 128 329 100 271 100 b 212 100 178 125 178 167 b 178 211 207 235 309 235 l 357 235 z"},"L":{"x_min":0,"x_max":521,"ha":521,"o":"m 516 93 l 516 140 b 491 130 438 115 373 115 l 338 115 b 235 115 211 153 211 257 l 211 585 b 211 653 182 685 126 685 l 70 685 l 70 248 b 70 84 159 -6 320 -6 l 373 -6 b 486 -6 516 33 516 93 z"},"3":{"x_min":0,"x_max":590,"ha":590,"o":"m 523 203 b 523 271 456 334 396 347 b 466 362 519 408 519 506 b 519 621 423 697 274 697 b 134 697 62 621 62 565 l 62 507 l 67 507 b 103 554 174 580 250 580 b 342 580 384 543 384 482 b 384 433 351 396 250 392 b 221 391 195 390 176 388 l 176 343 b 176 309 199 292 259 291 b 344 289 388 265 388 199 b 388 147 351 106 261 106 b 169 106 104 135 62 180 l 57 180 l 57 126 b 57 33 146 -12 254 -12 b 433 -12 523 74 523 203 z"},";":{"x_min":0,"x_max":333,"ha":333,"o":"m 256 453 b 256 501 217 539 170 539 b 123 539 84 501 84 453 b 84 406 123 367 170 367 b 217 367 256 406 256 453 z m 248 34 b 248 108 214 148 162 148 b 117 148 84 115 84 74 b 84 43 96 31 111 16 b 122 5 127 -10 127 -29 b 127 -58 108 -107 81 -132 l 81 -138 l 108 -138 b 185 -138 248 -54 248 34 z"},"J":{"x_min":0,"x_max":390,"ha":390,"o":"m 335 184 l 335 592 b 335 653 304 685 243 685 l 197 685 l 197 190 b 197 135 174 108 112 108 b 71 108 31 117 9 130 l 4 130 l 4 67 b 4 25 56 -12 131 -12 b 272 -12 335 72 335 184 z"},"V":{"x_min":0,"x_max":618,"ha":618,"o":"m 507 316 b 552 425 601 588 601 626 b 601 664 575 685 542 685 l 466 685 b 440 512 386 344 313 186 b 232 358 197 484 175 610 b 168 651 139 685 88 685 l 9 685 b 40 467 130 226 238 50 b 262 11 296 -5 337 -5 l 349 -5 b 418 104 466 216 507 316 z"},"\"":{"x_min":0,"x_max":394,"ha":394,"o":"m 366 602 b 371 655 336 686 288 686 l 227 686 l 241 528 b 246 475 271 444 319 444 l 351 444 z m 177 602 b 182 655 147 686 99 686 l 38 686 l 52 528 b 57 475 82 444 130 444 l 162 444 z"},"7":{"x_min":0,"x_max":222,"ha":222,"o":""},"S":{"x_min":0,"x_max":572,"ha":572,"o":"m 527 212 b 527 304 466 369 341 395 b 213 422 181 447 181 488 b 181 541 220 576 326 576 b 401 576 462 554 504 509 l 508 509 l 508 572 b 508 629 462 697 302 697 b 141 697 45 589 45 475 b 45 382 111 324 227 299 b 372 268 390 247 390 200 b 390 145 357 110 254 110 b 171 110 109 143 63 184 l 60 184 l 60 123 b 60 42 131 -12 269 -12 b 435 -12 527 77 527 212 z"},"}":{"x_min":0,"x_max":370,"ha":370,"o":"m 242 154 b 242 193 262 224 298 230 l 346 238 l 346 276 b 346 300 333 314 298 319 b 256 325 244 363 244 394 b 244 420 245 450 248 477 b 251 505 249 536 249 562 b 249 654 192 720 95 720 l 11 720 l 11 680 b 11 651 28 630 64 630 l 81 630 b 129 630 146 585 146 539 b 146 520 147 491 145 469 b 142 447 142 419 142 393 b 142 318 172 282 229 273 l 229 271 b 172 261 140 225 140 150 b 140 124 142 107 145 85 b 148 63 146 32 146 13 b 146 -34 130 -80 85 -80 l 10 -80 l 10 -120 b 10 -154 42 -170 69 -170 l 96 -170 b 195 -170 249 -102 249 -10 b 249 16 251 51 248 78 b 245 105 242 129 242 154 z"},"Z":{"x_min":0,"x_max":587,"ha":587,"o":"m 547 71 l 547 120 l 202 120 b 209 150 248 196 294 248 l 463 437 b 513 493 546 553 546 595 b 546 652 519 685 453 685 l 142 685 b 69 685 40 656 40 602 l 40 565 l 387 565 b 378 537 346 497 313 460 l 143 268 b 86 204 40 145 40 86 b 40 31 77 0 126 0 l 469 0 b 519 0 547 36 547 71 z"},"x":{"x_min":0,"x_max":554,"ha":554,"o":"m 542 59 b 495 69 471 91 413 176 l 354 262 b 386 298 414 331 436 360 b 479 416 499 458 499 482 b 499 512 483 539 444 539 l 393 539 b 384 485 370 457 284 360 l 229 438 b 169 523 136 540 110 540 l 30 540 b 32 499 66 451 126 364 l 183 282 l 139 235 b 72 163 35 110 35 46 b 35 19 59 -2 90 -2 l 151 -2 b 156 31 163 58 181 89 b 196 115 218 145 252 184 l 311 95 b 358 24 397 -8 454 -8 b 513 -8 542 21 542 59 z"},")":{"x_min":0,"x_max":354,"ha":354,"o":"m 5 719 l 5 714 b 93 634 168 477 168 262 b 168 64 94 -71 4 -166 l 4 -171 l 71 -171 b 96 -171 137 -155 160 -133 b 239 -57 305 99 305 282 b 305 467 221 634 155 686 b 131 705 96 719 74 719 z"},"&":{"x_min":0,"x_max":672,"ha":672,"o":"m 654 63 b 620 65 591 75 546 118 l 526 137 b 560 183 607 259 607 315 b 607 366 581 385 551 385 l 524 385 b 522 322 489 249 454 210 b 417 246 360 313 331 350 b 418 399 476 461 476 529 b 476 627 406 687 304 687 b 174 687 106 601 106 511 b 106 465 137 417 170 379 b 103 341 37 270 37 187 b 37 73 115 -12 266 -12 b 369 -12 424 30 452 61 l 487 27 b 522 -7 558 -13 588 -13 b 635 -13 654 13 654 63 z m 362 526 b 362 487 334 458 275 424 b 255 453 229 481 229 518 b 229 565 253 590 298 590 b 338 590 362 568 362 526 z m 382 133 b 359 109 318 94 283 94 b 208 94 165 123 165 201 b 165 245 199 281 233 301 b 264 257 344 170 382 133 z"},"_":{"x_min":0,"x_max":565,"ha":565,"o":"m 565 -285 l 565 -200 l 0 -200 l 0 -285 z"},"v":{"x_min":0,"x_max":517,"ha":517,"o":"m 502 476 b 502 520 485 540 439 540 l 382 540 b 362 405 315 262 264 161 b 207 272 180 376 161 476 b 156 505 127 540 81 540 l 9 540 b 21 394 113 159 186 48 b 213 8 234 -6 274 -6 l 300 -6 b 360 76 420 206 456 305 b 489 395 502 460 502 476 z"},"O":{"x_min":0,"x_max":725,"ha":725,"o":"m 683 353 b 683 570 536 697 370 697 b 162 697 42 545 42 332 b 42 127 182 -12 355 -12 b 564 -12 683 145 683 353 z m 542 334 b 542 183 474 107 368 107 b 243 107 183 188 183 353 b 183 493 256 576 357 576 b 473 576 542 495 542 334 z"},"(":{"x_min":0,"x_max":354,"ha":354,"o":"m 349 -170 l 349 -165 b 261 -85 186 72 186 287 b 186 485 260 620 350 715 l 350 720 l 283 720 b 258 720 217 704 194 682 b 115 606 49 450 49 267 b 49 82 133 -85 199 -137 b 223 -156 258 -170 280 -170 z"},"C":{"x_min":0,"x_max":598,"ha":598,"o":"m 586 502 l 586 555 b 586 649 504 695 392 695 b 183 695 42 546 42 335 b 42 130 198 -6 380 -6 b 475 -6 584 34 584 128 l 584 179 l 579 179 b 542 140 466 113 398 113 b 269 113 180 194 180 355 b 180 488 271 576 393 576 b 452 576 538 558 581 502 z"},"W":{"x_min":0,"x_max":953,"ha":953,"o":"m 867 347 b 890 419 938 583 938 620 b 938 661 910 684 878 684 l 807 684 b 785 521 736 349 679 210 b 624 338 589 453 566 568 b 552 639 504 659 459 659 l 414 659 b 395 561 345 357 283 210 b 219 363 189 490 170 607 b 164 643 136 685 88 685 l 9 685 b 37 464 115 216 216 37 b 239 -4 270 -6 285 -6 l 317 -6 b 388 112 444 268 477 417 b 509 271 564 126 614 37 b 637 -4 665 -6 680 -6 l 713 -6 b 791 129 833 240 867 347 z"},"A":{"x_min":0,"x_max":622,"ha":622,"o":"m 612 0 b 585 216 482 511 420 622 b 401 655 364 685 309 685 l 253 685 b 148 568 20 165 20 66 b 20 24 38 0 83 0 l 136 0 b 146 58 158 117 172 175 l 445 175 b 452 146 458 111 464 66 b 469 33 499 0 556 0 z m 414 284 l 202 284 b 225 379 268 488 308 559 b 344 495 391 380 414 284 z"},"f":{"x_min":0,"x_max":368,"ha":368,"o":"m 378 600 l 378 645 b 378 698 333 730 275 730 b 118 730 65 608 65 532 l 65 80 b 65 33 103 0 146 0 l 200 0 l 200 360 l 258 360 b 303 360 354 388 354 436 l 354 473 l 200 473 l 200 521 b 200 593 241 612 296 612 b 329 612 353 607 374 600 z"},"Q":{"x_min":0,"x_max":735,"ha":735,"o":"m 297 -7 b 382 -55 532 -96 633 -96 b 688 -96 707 -70 707 -30 l 707 14 b 641 14 541 23 489 40 b 578 58 683 178 683 353 b 683 572 533 697 375 697 b 146 697 42 535 42 333 b 42 128 182 16 297 -7 z m 542 336 b 542 207 479 106 375 106 b 254 106 183 186 183 353 b 183 486 249 576 358 576 b 484 576 542 493 542 336 z"},"w":{"x_min":0,"x_max":810,"ha":810,"o":"m 795 485 b 795 526 768 543 730 543 l 674 543 b 653 421 624 296 573 183 b 535 259 502 371 486 444 b 473 503 432 520 391 520 l 347 520 b 321 406 294 290 245 183 b 200 281 175 383 159 475 b 154 505 127 540 81 540 l 9 540 b 33 360 85 204 163 66 b 181 34 219 -6 259 -6 l 277 -6 b 325 59 388 226 405 308 b 420 226 461 126 494 66 b 512 33 544 -6 586 -6 l 608 -6 b 643 46 693 145 733 259 b 773 371 795 464 795 485 z"},"-":{"x_min":0,"x_max":372,"ha":372,"o":"m 333 354 l 100 354 b 61 354 38 330 38 297 l 38 246 l 268 246 b 309 246 333 266 333 301 z"},"E":{"x_min":0,"x_max":560,"ha":560,"o":"m 538 128 b 489 117 438 113 388 113 l 344 113 b 238 113 199 136 199 255 l 199 295 l 380 295 b 435 295 463 313 463 358 l 463 407 l 199 407 b 199 450 202 517 209 567 l 444 567 b 507 567 536 591 536 639 l 536 685 l 178 685 b 122 685 84 664 73 582 b 65 527 60 454 60 389 l 60 262 b 60 87 148 -5 315 -5 l 388 -5 b 508 -5 536 25 537 80 z"},"s":{"x_min":0,"x_max":492,"ha":492,"o":"m 453 170 b 453 256 393 305 281 323 b 189 338 173 349 173 376 b 173 411 199 436 281 436 b 345 436 407 414 435 386 l 440 386 l 440 437 b 440 489 390 552 268 552 b 130 552 39 466 39 365 b 39 283 94 238 208 222 b 301 209 320 194 320 163 b 320 123 288 104 222 104 b 158 104 89 128 60 155 l 55 155 l 55 94 b 55 39 129 -12 228 -12 b 373 -12 453 56 453 170 z"},">":{"x_min":0,"x_max":590,"ha":590,"o":"m 62 101 l 62 54 b 182 91 412 193 490 239 b 527 261 547 283 547 317 l 547 333 b 453 401 285 487 193 522 b 181 527 153 537 139 537 b 103 537 66 525 66 485 l 66 455 b 153 420 322 343 392 304 b 328 273 186 213 138 195 b 83 174 62 141 62 101 z"},"l":{"x_min":0,"x_max":326,"ha":326,"o":"m 331 76 l 331 105 l 295 105 b 232 105 204 122 204 176 l 204 630 b 204 681 175 720 108 720 l 70 720 l 70 163 b 70 54 130 -5 241 -5 b 300 -5 331 18 331 76 z"},"8":{"x_min":0,"x_max":590,"ha":590,"o":"m 539 195 b 539 274 477 335 421 354 b 479 371 536 412 536 504 b 536 612 442 697 301 697 b 162 697 57 619 57 494 b 57 411 113 366 171 346 b 111 328 53 258 53 185 b 53 68 142 -12 288 -12 b 474 -12 539 77 539 195 z m 292 578 b 366 578 399 543 399 488 b 399 441 364 404 300 404 b 226 404 194 441 194 492 b 194 539 229 578 292 578 z m 404 199 b 404 148 372 107 300 107 b 220 107 190 143 190 207 b 190 256 237 296 292 296 b 366 296 404 254 404 199 z"},"\\":{"x_min":0,"x_max":427,"ha":427,"o":"m 427 0 l 168 615 b 150 658 102 685 69 685 l 4 685 l 255 89 b 280 30 334 0 372 0 z"},"e":{"x_min":0,"x_max":558,"ha":558,"o":"m 520 343 b 520 472 416 552 304 552 b 150 552 40 439 40 259 b 40 94 171 -12 305 -12 b 453 -12 500 41 500 110 l 500 152 l 495 152 b 452 112 386 101 330 101 b 251 101 189 144 179 212 l 267 212 b 445 212 520 244 520 343 z m 394 359 b 394 321 365 307 238 307 l 178 307 l 179 325 b 182 387 227 440 292 440 b 354 440 394 413 394 359 z"},"b":{"x_min":0,"x_max":631,"ha":631,"o":"m 589 281 b 589 440 484 552 347 552 b 274 552 228 509 201 470 l 201 627 b 201 690 165 720 113 720 l 67 720 l 67 263 b 67 101 183 -12 321 -12 b 485 -12 589 119 589 281 z m 450 258 b 450 171 402 107 335 107 b 255 107 202 158 202 282 b 202 366 253 433 321 433 b 403 433 450 389 450 258 z"},"%":{"x_min":0,"x_max":993,"ha":993,"o":"m 400 477 b 400 591 336 692 226 692 b 107 692 43 590 43 461 b 43 347 107 246 217 246 b 336 246 400 348 400 477 z m 672 602 b 677 613 679 627 679 640 b 679 669 657 683 632 683 l 598 683 l 323 107 b 311 83 307 71 307 52 b 307 17 330 0 362 0 l 387 0 z m 953 221 b 953 335 888 436 778 436 b 659 436 596 335 596 206 b 596 92 660 -10 770 -10 b 889 -10 953 92 953 221 z m 289 461 b 289 391 268 342 225 342 b 175 342 154 392 154 477 b 154 547 175 596 218 596 b 267 596 289 547 289 461 z m 846 209 b 846 139 825 90 782 90 b 732 90 710 139 710 224 b 710 294 732 343 775 343 b 824 343 846 295 846 209 z"},"m":{"x_min":0,"x_max":914,"ha":914,"o":"m 849 0 l 849 324 b 849 477 749 552 625 552 b 560 552 501 518 470 468 b 431 520 376 552 306 552 b 143 552 66 454 66 307 l 66 98 b 66 36 108 0 163 0 l 199 0 l 199 318 b 199 392 238 433 290 433 b 349 433 390 395 390 306 l 390 98 b 390 34 429 0 488 0 l 524 0 l 524 321 b 524 395 561 433 615 433 b 674 433 714 395 714 306 l 714 98 b 714 34 743 0 816 0 z"},"#":{"x_min":0,"x_max":590,"ha":590,"o":"m 574 469 l 574 501 l 490 501 l 509 602 b 511 611 511 619 511 626 b 511 663 487 685 447 685 l 416 685 l 380 501 l 275 501 l 295 605 b 296 612 297 618 297 624 b 297 664 275 685 233 685 l 202 685 l 166 501 l 131 501 b 85 501 59 476 59 435 l 59 404 l 147 404 l 124 282 l 87 282 b 41 282 15 258 15 217 l 15 185 l 105 185 l 85 83 b 83 74 82 65 82 57 b 82 21 97 0 137 0 l 178 0 l 214 185 l 319 185 l 299 82 b 297 73 296 65 296 57 b 296 21 311 0 351 0 l 392 0 l 428 185 l 458 185 b 504 185 530 210 530 251 l 530 282 l 447 282 l 471 404 l 502 404 b 548 404 574 428 574 469 z m 362 404 l 338 282 l 233 282 l 256 404 z"},",":{"x_min":0,"x_max":281,"ha":281,"o":"m 219 34 b 219 108 185 148 133 148 b 88 148 55 115 55 74 b 55 43 67 31 82 16 b 93 5 98 -10 98 -29 b 98 -58 79 -107 52 -132 l 52 -138 l 79 -138 b 156 -138 219 -54 219 34 z"},"n":{"x_min":0,"x_max":605,"ha":605,"o":"m 540 0 l 540 314 b 540 467 435 552 308 552 b 140 552 65 435 65 321 l 65 88 b 65 38 102 0 159 0 l 199 0 l 199 312 b 199 389 239 433 297 433 b 366 433 406 393 406 302 l 406 88 b 406 38 444 0 504 0 z"},"h":{"x_min":0,"x_max":610,"ha":610,"o":"m 545 0 l 545 316 b 545 469 463 552 324 552 b 273 552 227 512 207 480 b 207 528 207 634 207 634 b 207 684 176 720 112 720 l 70 720 l 70 90 b 70 35 99 0 162 0 l 206 0 l 206 306 b 206 401 261 433 303 433 b 362 433 410 398 410 310 l 410 90 b 410 32 445 0 501 0 z"},"z":{"x_min":0,"x_max":505,"ha":505,"o":"m 465 63 l 465 115 l 203 115 b 215 137 235 161 254 182 l 389 328 b 436 379 458 429 458 471 b 458 502 437 540 374 540 l 129 540 b 69 540 40 509 40 469 l 40 428 l 305 428 b 296 410 275 385 259 367 l 123 219 b 72 164 41 112 41 71 b 41 29 71 0 133 0 l 396 0 b 430 0 465 30 465 63 z"},"B":{"x_min":0,"x_max":605,"ha":605,"o":"m 564 212 b 564 272 512 343 443 362 b 511 382 552 431 552 507 b 552 619 459 688 328 688 l 245 688 b 188 688 97 669 64 657 l 64 160 b 64 53 127 -3 255 -3 l 329 -3 b 454 -3 564 74 564 212 z m 415 495 b 415 436 365 412 304 412 l 199 412 l 199 567 b 218 570 241 574 258 574 l 309 574 b 360 574 415 555 415 495 z m 426 208 b 426 156 390 122 316 122 l 260 122 b 226 122 200 141 200 165 l 200 306 l 309 306 b 389 306 426 282 426 208 z"},"K":{"x_min":0,"x_max":609,"ha":609,"o":"m 109 685 l 65 685 l 65 93 b 65 46 89 0 155 0 l 200 0 l 200 346 b 268 237 336 138 420 41 b 444 14 483 -3 516 -3 b 571 -3 592 17 604 66 b 584 71 570 78 550 94 b 463 168 401 272 337 365 b 406 463 542 626 595 680 l 595 685 l 501 685 b 448 685 433 682 397 643 b 322 563 261 469 200 379 l 200 593 b 200 641 175 685 109 685 z"},"R":{"x_min":0,"x_max":603,"ha":603,"o":"m 583 17 b 575 29 558 48 541 88 l 486 216 b 469 256 438 297 401 312 b 481 324 542 401 542 494 b 542 609 453 691 317 691 l 241 691 b 190 691 94 677 65 666 l 65 92 b 65 37 97 0 158 0 l 202 0 l 202 275 b 216 275 240 271 270 266 b 306 260 335 255 366 180 l 417 56 b 435 12 473 -5 517 -5 b 555 -5 567 0 583 17 z m 301 573 b 361 573 403 555 403 472 b 403 411 356 379 300 379 b 263 379 232 379 202 385 l 202 566 b 217 570 250 573 263 573 z"},"T":{"x_min":0,"x_max":555,"ha":555,"o":"m 548 642 l 548 685 l 88 685 b 32 685 5 643 5 610 l 5 565 l 202 565 l 202 92 b 202 31 237 0 285 0 l 340 0 l 340 565 l 466 565 b 511 565 548 609 548 642 z"},"P":{"x_min":0,"x_max":563,"ha":563,"o":"m 548 477 b 548 614 453 690 320 690 l 243 690 b 194 690 103 672 65 658 l 65 98 b 65 25 110 0 148 0 l 202 0 l 202 266 b 230 251 269 243 317 243 b 448 243 548 332 548 477 z m 407 465 b 407 399 369 359 299 359 b 264 359 226 364 202 371 l 202 565 b 218 568 242 574 259 574 l 303 574 b 375 574 407 543 407 465 z"},"|":{"x_min":0,"x_max":257,"ha":257,"o":"m 156 -170 l 156 680 b 156 706 134 720 114 720 l 94 720 l 94 -125 b 94 -153 116 -170 135 -170 z"},"t":{"x_min":0,"x_max":405,"ha":405,"o":"m 70 518 l 70 194 b 70 68 136 -6 272 -6 b 350 -6 390 29 390 84 l 390 132 l 385 132 b 364 119 331 113 288 113 b 234 113 203 140 203 210 l 203 421 l 310 421 b 365 421 390 457 390 485 l 390 540 l 203 540 l 203 662 l 172 662 b 151 662 127 646 109 625 b 80 591 70 571 70 518 z"},"M":{"x_min":0,"x_max":901,"ha":901,"o":"m 847 0 b 847 137 827 435 814 543 b 803 637 753 685 677 685 l 661 685 b 633 662 589 593 554 484 l 475 241 b 468 218 461 197 456 171 b 450 202 438 243 417 301 l 322 569 b 296 642 229 685 134 685 l 105 685 b 80 549 50 244 50 91 b 50 33 85 0 136 0 l 184 0 b 184 125 196 400 214 498 b 224 474 240 433 252 398 l 350 109 b 375 35 415 0 460 0 l 497 0 b 516 27 537 73 553 122 l 649 416 b 659 447 672 475 681 497 b 692 429 707 178 707 91 b 707 29 743 0 795 0 z"},"g":{"x_min":0,"x_max":606,"ha":606,"o":"m 537 224 l 537 316 b 537 454 451 552 317 552 b 143 552 43 429 43 277 b 43 150 136 59 267 59 b 344 59 395 100 406 139 l 406 126 b 406 121 407 107 407 99 b 408 90 408 79 408 71 b 408 -7 364 -53 267 -53 b 190 -53 128 -29 96 5 l 90 5 l 90 -56 b 90 -120 166 -174 277 -174 b 451 -174 541 -53 541 82 b 541 100 540 129 539 151 b 538 175 537 206 537 224 z m 302 433 b 361 433 403 392 403 308 b 403 222 355 172 288 172 b 224 172 181 224 181 294 b 181 375 233 433 302 433 z"},"j":{"x_min":0,"x_max":303,"ha":303,"o":"m 238 659 b 238 702 204 737 161 737 b 118 737 82 702 82 659 b 82 616 118 580 161 580 b 204 580 238 616 238 659 z m 225 4 l 225 435 b 225 496 189 528 129 528 l 91 528 l 91 17 b 91 -35 58 -59 21 -61 b 21 -61 -25 -65 -44 -65 l -44 -114 b -44 -147 -10 -175 43 -175 b 148 -175 225 -109 225 4 z"},"i":{"x_min":0,"x_max":333,"ha":333,"o":"m 227 657 b 227 700 191 735 148 735 b 105 735 70 700 70 657 b 70 614 105 578 148 578 b 191 578 227 614 227 657 z m 323 76 l 323 105 l 298 105 b 239 105 216 122 216 176 l 216 428 b 216 496 180 528 120 528 l 82 528 b 82 528 82 194 82 163 b 82 54 139 -5 243 -5 b 300 -5 323 18 323 76 z"},"y":{"x_min":0,"x_max":508,"ha":508,"o":"m 374 116 b 399 174 493 420 493 477 b 493 521 473 540 430 540 l 372 540 b 360 430 311 267 267 166 b 218 261 178 373 159 477 b 152 515 118 540 81 540 l 10 540 b 28 413 130 145 201 38 b 172 -38 155 -58 106 -61 l 30 -66 l 30 -92 b 30 -142 74 -175 124 -175 b 221 -175 274 -120 374 116 z"},"@":{"x_min":0,"x_max":757,"ha":757,"o":"m 728 407 b 728 578 600 703 418 703 b 187 703 36 520 36 313 b 36 113 186 -8 356 -8 b 422 -8 464 -2 490 5 b 529 16 544 45 544 74 l 544 107 b 486 78 424 75 374 75 b 234 75 134 163 134 321 b 134 506 261 621 408 621 b 554 621 633 528 633 403 b 633 290 580 243 547 244 b 536 244 526 252 526 283 b 526 304 529 335 536 368 b 541 394 549 424 549 455 b 549 498 473 544 416 544 b 291 544 201 441 201 314 b 201 221 265 155 326 155 b 376 155 409 178 441 219 b 454 177 486 155 529 155 b 643 155 728 257 728 407 z m 446 429 b 439 381 431 343 421 315 b 407 277 388 258 355 258 b 340 258 317 268 317 324 b 317 395 360 444 401 444 b 423 444 436 438 446 429 z"},".":{"x_min":0,"x_max":280,"ha":280,"o":"m 227 86 b 227 133 188 172 141 172 b 94 172 55 133 55 86 b 55 39 94 0 141 0 b 188 0 227 39 227 86 z"},"p":{"x_min":0,"x_max":620,"ha":620,"o":"m 580 286 b 580 422 478 552 335 552 b 145 552 65 428 65 249 l 65 -77 b 65 -135 111 -170 159 -170 l 201 -170 b 201 -170 201 -7 201 68 b 228 22 277 -12 337 -12 b 494 -12 580 113 580 286 z m 442 251 b 442 165 397 107 332 107 b 252 107 199 168 199 276 b 199 369 240 433 314 433 b 400 433 442 378 442 251 z"},"X":{"x_min":0,"x_max":684,"ha":684,"o":"m 669 35 b 626 68 567 123 513 202 l 422 335 b 541 470 616 568 616 617 b 616 657 598 686 555 686 l 503 686 b 488 626 460 577 346 445 l 263 569 b 193 673 155 685 124 685 l 30 685 b 42 639 79 576 152 474 l 233 361 l 168 291 b 99 217 69 165 54 128 b 43 102 39 81 39 53 b 39 25 60 0 95 0 l 162 0 b 180 66 212 137 308 251 l 394 125 b 462 25 508 -8 571 -8 b 626 -8 648 10 669 35 z"},"*":{"x_min":0,"x_max":515,"ha":515,"o":"m 398 479 b 440 479 484 497 484 548 b 484 579 468 605 441 644 b 407 593 354 554 306 545 b 316 583 335 619 335 659 b 335 711 296 732 250 732 b 231 732 205 722 188 717 b 226 670 230 619 230 575 b 230 568 230 562 229 554 b 189 579 167 608 113 608 b 56 608 33 553 29 487 b 63 498 81 502 97 502 b 129 502 155 498 194 484 b 154 448 98 423 98 360 b 98 314 133 290 200 287 b 200 339 212 379 255 436 b 272 400 280 361 302 328 b 319 302 344 295 366 295 b 402 295 420 324 440 367 b 363 387 364 423 322 474 b 342 477 371 479 398 479 z"},"Y":{"x_min":0,"x_max":571,"ha":571,"o":"m 556 632 b 556 664 536 685 500 685 l 440 685 b 409 582 336 459 292 398 b 249 459 195 557 161 637 b 152 658 123 685 69 685 l 5 685 b 48 558 134 396 214 292 l 214 90 b 214 30 257 0 297 0 l 354 0 l 354 292 b 416 364 556 579 556 632 z"},"c":{"x_min":0,"x_max":510,"ha":510,"o":"m 478 366 l 478 429 b 478 493 417 545 331 545 b 147 545 40 413 40 259 b 40 105 168 -10 316 -10 b 413 -10 476 37 476 102 l 476 164 l 471 164 b 452 139 406 114 329 114 b 238 114 180 181 180 279 b 180 359 249 422 327 422 b 404 422 455 397 473 366 z"},"!":{"x_min":0,"x_max":318,"ha":318,"o":"m 223 601 b 224 654 193 685 145 685 l 84 685 l 94 319 b 95 266 124 235 172 235 l 213 235 z m 247 86 b 247 133 208 172 161 172 b 114 172 75 133 75 86 b 75 39 114 0 161 0 b 208 0 247 39 247 86 z"},"/":{"x_min":0,"x_max":456,"ha":456,"o":"m 412 634 b 417 645 419 665 419 675 b 419 706 398 720 373 720 l 338 720 l 50 107 b 42 91 37 69 37 55 b 37 19 61 0 88 0 l 113 0 z"},"[":{"x_min":0,"x_max":320,"ha":320,"o":"m 309 -170 l 309 -137 b 309 -101 285 -81 254 -81 l 181 -81 l 181 631 l 309 631 l 309 663 b 309 698 287 720 250 720 l 79 720 l 79 -170 z"},"6":{"x_min":0,"x_max":590,"ha":590,"o":"m 547 232 b 547 370 446 445 329 445 b 264 445 207 411 183 359 b 187 496 236 581 361 581 b 441 581 479 559 506 531 l 512 531 l 512 572 b 512 642 449 697 357 697 b 172 697 48 570 48 312 b 48 87 157 -12 293 -12 b 480 -12 547 121 547 232 z m 188 233 b 188 286 227 331 303 331 b 362 331 412 297 412 221 b 412 143 377 103 301 103 b 227 103 188 163 188 233 z"},"r":{"x_min":0,"x_max":386,"ha":386,"o":"m 376 409 l 376 457 b 376 498 347 545 264 545 b 122 545 65 442 65 334 l 65 86 b 65 30 103 0 163 0 l 200 0 l 200 310 b 200 392 233 425 293 425 b 328 425 351 417 371 409 z"},"2":{"x_min":0,"x_max":590,"ha":590,"o":"m 532 67 l 532 117 l 211 117 b 222 135 253 164 276 182 l 382 265 b 486 347 525 392 525 494 b 525 604 428 697 296 697 b 125 697 64 617 64 537 l 64 488 l 69 488 b 114 549 171 577 271 577 b 347 577 390 538 390 476 b 390 446 380 414 343 384 l 183 251 b 77 163 54 113 54 68 b 54 30 84 0 123 0 l 440 0 b 495 0 532 24 532 67 z"},"{":{"x_min":0,"x_max":370,"ha":370,"o":"m 129 396 b 129 357 109 326 73 320 l 25 312 l 25 274 b 25 250 38 236 73 231 b 115 225 127 187 127 156 b 127 130 126 100 123 73 b 120 45 122 14 122 -12 b 122 -104 179 -170 276 -170 l 360 -170 l 360 -130 b 360 -101 343 -80 307 -80 l 290 -80 b 242 -80 225 -35 225 11 b 225 30 223 59 226 81 b 229 103 229 131 229 157 b 229 232 199 268 142 277 l 142 279 b 199 289 231 325 231 400 b 231 426 229 443 226 465 b 223 487 225 518 225 537 b 225 584 241 630 286 630 l 361 630 l 361 670 b 361 704 328 720 302 720 l 275 720 b 176 720 122 652 122 560 b 122 534 120 499 123 472 b 126 445 129 421 129 396 z"},"9":{"x_min":0,"x_max":580,"ha":580,"o":"m 538 359 b 538 603 443 697 297 697 b 128 697 39 591 39 444 b 39 316 132 230 275 230 b 338 230 383 266 401 318 b 396 165 352 106 259 106 b 172 106 113 132 81 163 l 76 163 l 76 114 b 76 35 155 -12 266 -12 b 431 -12 538 106 538 359 z m 400 445 b 400 385 357 344 284 344 b 220 344 177 379 177 460 b 177 531 216 582 286 582 b 357 582 400 540 400 445 z"}," ":{"x_min":0,"x_max":222,"ha":222,"o":""},"I":{"x_min":0,"x_max":272,"ha":272,"o":"m 203 0 l 203 612 b 203 656 165 685 130 685 l 68 685 l 68 91 b 68 31 111 0 151 0 z"},"H":{"x_min":0,"x_max":677,"ha":677,"o":"m 612 0 l 612 613 b 612 657 574 685 539 685 l 477 685 l 477 409 l 200 409 l 200 613 b 200 652 171 685 132 685 l 65 685 l 65 92 b 65 32 102 0 148 0 l 201 0 l 201 294 l 477 294 l 477 92 b 477 32 517 0 557 0 z"},"4":{"x_min":0,"x_max":590,"ha":590,"o":"m 565 221 l 565 275 l 457 275 l 457 589 b 457 653 423 685 375 685 l 325 685 b 230 608 82 385 35 299 b 26 282 17 262 17 224 b 17 193 47 162 92 162 l 324 162 l 324 88 b 324 30 357 0 404 0 l 457 0 l 457 162 l 508 162 b 546 162 565 186 565 221 z m 324 275 l 143 275 b 183 348 277 484 324 546 z"},"~":{"x_min":0,"x_max":590,"ha":590,"o":"m 521 326 b 521 362 499 391 479 391 l 440 391 b 440 341 423 321 385 321 b 364 321 327 337 302 352 b 272 369 243 386 201 386 b 147 386 70 352 70 257 b 70 213 96 192 120 192 l 152 192 b 152 237 177 265 207 265 b 225 265 256 256 285 239 b 316 221 345 202 388 202 b 472 202 521 257 521 326 z"},"D":{"x_min":0,"x_max":665,"ha":665,"o":"m 627 353 b 627 582 462 687 305 687 l 234 687 b 182 687 98 674 65 661 l 65 146 b 65 40 139 -6 255 -6 l 312 -6 b 491 -6 627 146 627 353 z m 487 334 b 487 210 407 114 294 114 l 271 114 b 220 114 202 132 202 172 l 202 565 b 202 565 237 572 254 572 l 284 572 b 402 572 487 487 487 334 z"},"^":{"x_min":0,"x_max":501,"ha":501,"o":"m 441 418 b 414 499 336 636 299 684 b 286 700 268 720 246 720 l 225 720 b 164 652 98 543 72 486 b 68 478 60 464 60 456 b 60 433 80 417 111 417 l 129 417 b 155 476 214 568 246 616 b 275 572 319 492 330 461 b 342 427 394 405 441 418 z"},"0":{"x_min":0,"x_max":590,"ha":590,"o":"m 553 357 b 553 564 462 697 305 697 b 141 697 36 579 36 330 b 36 106 143 -12 294 -12 b 443 -12 553 101 553 357 z m 171 358 b 171 516 226 577 294 577 b 377 577 418 514 418 326 b 418 175 371 108 305 108 b 218 108 171 170 171 358 z"},"F":{"x_min":0,"x_max":491,"ha":491,"o":"m 486 642 b 486 642 486 681 486 685 l 179 685 b 99 685 65 664 65 579 l 65 80 b 65 26 95 0 145 0 l 202 0 b 202 0 202 93 202 292 l 378 292 b 409 292 444 316 444 360 l 444 401 l 197 401 l 197 571 l 408 571 b 462 571 486 610 486 642 z"},"`":{"x_min":0,"x_max":529,"ha":529,"o":"m 137 714 b 137 685 162 660 203 643 b 236 629 282 619 318 619 l 363 619 l 363 624 b 341 658 317 691 288 717 b 256 746 232 765 193 765 b 160 765 137 750 137 714 z"},"k":{"x_min":0,"x_max":572,"ha":572,"o":"m 113 720 l 70 720 l 70 95 b 70 32 100 -1 162 0 l 205 1 l 205 264 b 264 185 324 105 393 34 b 416 11 451 -3 481 -3 b 536 -3 558 20 572 63 b 539 74 517 84 468 133 b 420 182 378 237 335 290 b 391 361 516 503 554 535 l 554 540 l 477 540 b 434 540 402 535 370 505 b 308 446 257 377 205 309 l 205 631 b 205 683 178 720 113 720 z"},"u":{"x_min":0,"x_max":604,"ha":604,"o":"m 539 242 l 539 444 b 539 507 506 540 428 540 l 404 540 l 404 237 b 404 145 365 107 310 107 b 249 107 201 147 201 246 l 201 444 b 201 507 167 540 90 540 l 65 540 l 65 233 b 65 76 170 -12 303 -12 b 460 -12 539 74 539 242 z"},"]":{"x_min":0,"x_max":320,"ha":320,"o":"m 18 720 l 18 687 b 18 651 42 631 73 631 l 146 631 l 146 -81 l 18 -81 l 18 -113 b 18 -148 40 -170 77 -170 l 248 -170 l 248 720 z"},"U":{"x_min":0,"x_max":663,"ha":663,"o":"m 612 309 l 612 563 b 612 647 578 685 526 685 l 474 685 l 474 301 b 474 180 434 116 337 116 b 231 116 188 178 188 306 l 188 559 b 188 654 146 685 103 685 l 50 685 l 50 297 b 50 99 157 -12 323 -12 b 519 -12 612 108 612 309 z"},"o":{"x_min":0,"x_max":602,"ha":602,"o":"m 40 260 b 40 117 133 -12 295 -12 b 469 -12 562 117 562 279 b 562 422 469 552 307 552 b 133 552 40 422 40 260 z m 423 260 b 423 172 385 108 307 108 b 218 108 179 172 179 279 b 179 368 218 432 295 432 b 383 432 423 368 423 260 z"},"N":{"x_min":0,"x_max":688,"ha":688,"o":"m 623 0 l 623 606 b 623 650 583 685 548 685 l 487 685 l 487 213 b 477 236 461 277 447 305 l 327 545 b 281 637 223 685 133 685 l 65 685 l 65 90 b 65 30 108 0 148 0 l 202 0 l 202 504 b 214 488 229 462 248 424 l 373 181 b 458 16 516 0 569 0 z"},"+":{"x_min":0,"x_max":590,"ha":590,"o":"m 558 286 l 558 334 l 351 334 l 351 458 b 351 497 322 523 294 523 l 238 523 l 238 334 l 92 334 b 53 334 27 304 27 276 l 27 221 l 238 221 l 238 92 b 238 40 272 12 304 12 l 351 12 l 351 221 l 478 221 b 530 221 558 254 558 286 z"},"G":{"x_min":0,"x_max":654,"ha":654,"o":"m 612 159 l 612 269 b 612 299 580 332 542 332 l 472 332 b 472 332 482 286 482 232 l 482 177 b 482 137 466 112 400 112 b 277 112 183 180 183 353 b 183 480 274 573 401 573 b 473 573 550 554 596 515 l 601 515 l 601 562 b 601 626 545 697 417 697 b 183 697 42 536 42 334 b 42 120 202 -12 384 -12 b 555 -12 612 56 612 159 z"},"q":{"x_min":0,"x_max":619,"ha":619,"o":"m 314 552 b 150 552 40 424 40 254 b 40 95 155 -12 290 -12 b 344 -12 399 14 421 58 l 421 -80 b 421 -141 454 -168 510 -169 l 554 -170 b 554 -170 554 130 554 280 b 554 449 469 552 314 552 z m 297 433 b 378 433 421 379 421 264 b 421 152 379 107 304 107 b 221 107 174 167 174 278 b 174 376 236 433 297 433 z"},"d":{"x_min":0,"x_max":615,"ha":615,"o":"m 550 249 l 550 629 b 550 683 522 720 458 720 l 417 720 l 417 467 b 396 514 337 552 283 552 b 126 552 40 437 40 260 b 40 112 149 -12 291 -12 b 476 -12 550 92 550 249 z m 415 255 b 415 157 382 101 307 101 b 230 101 172 174 172 286 b 172 373 216 439 284 439 b 356 439 415 390 415 255 z"},"1":{"x_min":0,"x_max":411,"ha":411,"o":"m 321 0 l 321 612 b 321 648 292 685 248 685 b 211 685 188 679 119 649 l -5 594 l 1 559 b 8 517 51 495 118 519 l 184 543 l 184 89 b 184 30 220 0 267 0 z"},"5":{"x_min":0,"x_max":590,"ha":590,"o":"m 534 222 b 534 346 427 419 296 419 b 267 419 229 416 206 413 l 206 566 l 418 566 b 479 566 511 599 511 649 l 511 685 l 181 685 b 100 685 72 642 72 563 l 72 290 b 120 301 177 312 232 312 b 342 312 394 284 394 214 b 394 146 356 108 256 108 b 165 108 116 128 70 168 l 65 168 l 65 117 b 65 40 124 -12 270 -12 b 430 -12 534 75 534 222 z"}}}
